<mxfile host="65bd71144e">
    <diagram id="wan4i1REWBxcFxjYRl0Y" name="Main-sycle">
        <mxGraphModel dx="1176" dy="1770" grid="1" gridSize="10" guides="1" tooltips="1" connect="1" arrows="1" fold="1" page="1" pageScale="1" pageWidth="850" pageHeight="1100" math="0" shadow="0">
            <root>
                <mxCell id="0"/>
                <mxCell id="1" parent="0"/>
                <mxCell id="20" value="&lt;h1&gt;Main sycle&lt;/h1&gt;&lt;p&gt;Global view on HaasToolBox&lt;/p&gt;" style="text;html=1;strokeColor=none;fillColor=none;spacing=5;spacingTop=-20;whiteSpace=wrap;overflow=hidden;rounded=0;fontSize=14;" parent="1" vertex="1">
                    <mxGeometry x="20" y="5" width="190" height="120" as="geometry"/>
                </mxCell>
                <mxCell id="A6MilO3rZacWlkoxQiDv-20" value="&lt;span style=&quot;color: rgb(0 , 0 , 0) ; font-family: &amp;#34;helvetica&amp;#34; ; font-size: 14px ; font-style: normal ; font-weight: 400 ; letter-spacing: normal ; text-align: center ; text-indent: 0px ; text-transform: none ; word-spacing: 0px ; background-color: rgb(248 , 249 , 250) ; display: inline ; float: none&quot;&gt;Configuring and backtesting selected bot&lt;/span&gt;" style="rounded=0;whiteSpace=wrap;html=1;" vertex="1" parent="1">
                    <mxGeometry x="320" y="325" width="120" height="60" as="geometry"/>
                </mxCell>
                <mxCell id="2" value="start_app" style="rounded=0;whiteSpace=wrap;html=1;" parent="1" vertex="1">
                    <mxGeometry x="390" y="-10" width="120" height="60" as="geometry"/>
                </mxCell>
                <mxCell id="3" value="HaasToolBox" style="rounded=0;whiteSpace=wrap;html=1;" parent="1" vertex="1">
                    <mxGeometry x="390" y="90" width="120" height="60" as="geometry"/>
                </mxCell>
                <mxCell id="4" value="&lt;h1&gt;&lt;font size=&quot;3&quot;&gt;Start HaasToolBox for choosing bot&lt;/font&gt;&lt;/h1&gt;" style="text;html=1;strokeColor=none;fillColor=none;spacing=5;spacingTop=-20;whiteSpace=wrap;overflow=hidden;rounded=0;" parent="1" vertex="1">
                    <mxGeometry x="640" y="-10" width="190" height="70" as="geometry"/>
                </mxCell>
                <mxCell id="5" value="&lt;h1&gt;&lt;font size=&quot;3&quot;&gt;Importing all bots and using inquirer to start choosed bot&lt;/font&gt;&lt;/h1&gt;" style="text;html=1;strokeColor=none;fillColor=none;spacing=5;spacingTop=-20;whiteSpace=wrap;overflow=hidden;rounded=0;" parent="1" vertex="1">
                    <mxGeometry x="640" y="75" width="190" height="100" as="geometry"/>
                </mxCell>
                <mxCell id="6" value="" style="endArrow=classic;html=1;fontSize=14;exitX=0.5;exitY=1;exitDx=0;exitDy=0;entryX=0.5;entryY=0;entryDx=0;entryDy=0;" parent="1" source="2" target="3" edge="1">
                    <mxGeometry width="50" height="50" relative="1" as="geometry">
                        <mxPoint x="440" y="260" as="sourcePoint"/>
                        <mxPoint x="490" y="210" as="targetPoint"/>
                    </mxGeometry>
                </mxCell>
                <mxCell id="A6MilO3rZacWlkoxQiDv-21" style="edgeStyle=none;html=1;entryX=0.5;entryY=0;entryDx=0;entryDy=0;" edge="1" parent="1" source="7" target="A6MilO3rZacWlkoxQiDv-20">
                    <mxGeometry relative="1" as="geometry"/>
                </mxCell>
                <mxCell id="7" value="Chain of bots" style="rounded=0;whiteSpace=wrap;html=1;fontSize=14;" parent="1" vertex="1">
                    <mxGeometry x="390" y="190" width="120" height="60" as="geometry"/>
                </mxCell>
                <mxCell id="8" value="&lt;h1&gt;&lt;font size=&quot;3&quot;&gt;Selecting bot from list&lt;/font&gt;&lt;/h1&gt;" style="text;html=1;strokeColor=none;fillColor=none;spacing=5;spacingTop=-20;whiteSpace=wrap;overflow=hidden;rounded=0;" parent="1" vertex="1">
                    <mxGeometry x="640" y="205" width="190" height="40" as="geometry"/>
                </mxCell>
                <mxCell id="9" value="" style="endArrow=classic;html=1;fontSize=14;exitX=0.5;exitY=1;exitDx=0;exitDy=0;entryX=0.5;entryY=0;entryDx=0;entryDy=0;" parent="1" source="3" target="7" edge="1">
                    <mxGeometry width="50" height="50" relative="1" as="geometry">
                        <mxPoint x="460" y="50" as="sourcePoint"/>
                        <mxPoint x="460" y="100" as="targetPoint"/>
                    </mxGeometry>
                </mxCell>
                <mxCell id="10" value="Configuring selected bot" style="rounded=0;whiteSpace=wrap;html=1;fontSize=14;" parent="1" vertex="1">
                    <mxGeometry x="470" y="325" width="120" height="60" as="geometry"/>
                </mxCell>
                <mxCell id="11" value="&lt;h1&gt;&lt;font size=&quot;3&quot;&gt;Manipulating bot parameters&lt;/font&gt;&lt;/h1&gt;" style="text;html=1;strokeColor=none;fillColor=none;spacing=5;spacingTop=-20;whiteSpace=wrap;overflow=hidden;rounded=0;" parent="1" vertex="1">
                    <mxGeometry x="650" y="315" width="190" height="70" as="geometry"/>
                </mxCell>
                <mxCell id="13" value="" style="endArrow=classic;html=1;fontSize=14;exitX=0.5;exitY=1;exitDx=0;exitDy=0;entryX=0.5;entryY=0;entryDx=0;entryDy=0;" parent="1" source="7" target="10" edge="1">
                    <mxGeometry width="50" height="50" relative="1" as="geometry">
                        <mxPoint x="540" y="195" as="sourcePoint"/>
                        <mxPoint x="540" y="235" as="targetPoint"/>
                        <Array as="points"/>
                    </mxGeometry>
                </mxCell>
                <mxCell id="14" value="Start backtesting" style="rounded=0;whiteSpace=wrap;html=1;fontSize=14;" parent="1" vertex="1">
                    <mxGeometry x="470" y="425" width="120" height="60" as="geometry"/>
                </mxCell>
                <mxCell id="15" value="&lt;h1&gt;&lt;font size=&quot;3&quot;&gt;Backtesting...&lt;/font&gt;&lt;/h1&gt;" style="text;html=1;strokeColor=none;fillColor=none;spacing=5;spacingTop=-20;whiteSpace=wrap;overflow=hidden;rounded=0;" parent="1" vertex="1">
                    <mxGeometry x="650" y="431.25" width="190" height="47.5" as="geometry"/>
                </mxCell>
                <mxCell id="16" value="" style="endArrow=classic;html=1;fontSize=14;exitX=0.5;exitY=1;exitDx=0;exitDy=0;entryX=0.5;entryY=0;entryDx=0;entryDy=0;" parent="1" target="14" edge="1">
                    <mxGeometry width="50" height="50" relative="1" as="geometry">
                        <mxPoint x="530" y="385" as="sourcePoint"/>
                        <mxPoint x="540" y="335" as="targetPoint"/>
                        <Array as="points"/>
                    </mxGeometry>
                </mxCell>
                <mxCell id="A6MilO3rZacWlkoxQiDv-22" value="&lt;h1&gt;&lt;font size=&quot;3&quot;&gt;Only for TradingBot&lt;/font&gt;&lt;/h1&gt;" style="text;html=1;strokeColor=none;fillColor=none;spacing=5;spacingTop=-20;whiteSpace=wrap;overflow=hidden;rounded=0;" vertex="1" parent="1">
                    <mxGeometry x="120" y="325" width="190" height="70" as="geometry"/>
                </mxCell>
            </root>
        </mxGraphModel>
    </diagram>
    <diagram id="3mTg0FOt_NO7-smuHQEA" name="HaasToolBox">
        <mxGraphModel dx="1176" dy="670" grid="1" gridSize="10" guides="1" tooltips="1" connect="1" arrows="1" fold="1" page="1" pageScale="1" pageWidth="850" pageHeight="1100" math="0" shadow="0">
            <root>
                <mxCell id="i7l9lv-lxQWFjhKXFnYf-0"/>
                <mxCell id="i7l9lv-lxQWFjhKXFnYf-1" parent="i7l9lv-lxQWFjhKXFnYf-0"/>
                <mxCell id="OzK7THxyfHfawzlKbS-_-0" value="__init__" style="rounded=0;whiteSpace=wrap;html=1;fontSize=14;" parent="i7l9lv-lxQWFjhKXFnYf-1" vertex="1">
                    <mxGeometry x="160" y="40" width="280" height="60" as="geometry"/>
                </mxCell>
                <mxCell id="GhQZbDqODk1YI7wpBqRe-0" value="&lt;h1&gt;&lt;font size=&quot;3&quot;&gt;Creates inquirer input message for bots&lt;/font&gt;&lt;/h1&gt;" style="text;html=1;strokeColor=none;fillColor=none;spacing=5;spacingTop=-20;whiteSpace=wrap;overflow=hidden;rounded=0;" parent="i7l9lv-lxQWFjhKXFnYf-1" vertex="1">
                    <mxGeometry x="480" y="35" width="190" height="70" as="geometry"/>
                </mxCell>
                <mxCell id="GhQZbDqODk1YI7wpBqRe-1" value="start_session" style="rounded=0;whiteSpace=wrap;html=1;fontSize=14;" parent="i7l9lv-lxQWFjhKXFnYf-1" vertex="1">
                    <mxGeometry x="160" y="160" width="280" height="60" as="geometry"/>
                </mxCell>
                <mxCell id="GhQZbDqODk1YI7wpBqRe-2" value="&lt;h1&gt;&lt;font style=&quot;font-size: 16px&quot;&gt;Catching response from inquirer input&lt;/font&gt;&lt;/h1&gt;" style="text;html=1;strokeColor=none;fillColor=none;spacing=5;spacingTop=-20;whiteSpace=wrap;overflow=hidden;rounded=0;" parent="i7l9lv-lxQWFjhKXFnYf-1" vertex="1">
                    <mxGeometry x="480" y="155" width="190" height="70" as="geometry"/>
                </mxCell>
                <mxCell id="GhQZbDqODk1YI7wpBqRe-3" value="_process_main_menu_repsonse" style="rounded=0;whiteSpace=wrap;html=1;fontSize=16;" parent="i7l9lv-lxQWFjhKXFnYf-1" vertex="1">
                    <mxGeometry x="160" y="280" width="280" height="60" as="geometry"/>
                </mxCell>
                <mxCell id="GhQZbDqODk1YI7wpBqRe-4" value="&lt;h1&gt;&lt;font style=&quot;font-size: 16px&quot;&gt;Process catched bot type&lt;/font&gt;&lt;/h1&gt;" style="text;html=1;strokeColor=none;fillColor=none;spacing=5;spacingTop=-20;whiteSpace=wrap;overflow=hidden;rounded=0;" parent="i7l9lv-lxQWFjhKXFnYf-1" vertex="1">
                    <mxGeometry x="480" y="275" width="190" height="70" as="geometry"/>
                </mxCell>
                <mxCell id="GhQZbDqODk1YI7wpBqRe-5" value="" style="endArrow=classic;html=1;fontSize=16;exitX=0.5;exitY=1;exitDx=0;exitDy=0;entryX=0.5;entryY=0;entryDx=0;entryDy=0;" parent="i7l9lv-lxQWFjhKXFnYf-1" source="OzK7THxyfHfawzlKbS-_-0" target="GhQZbDqODk1YI7wpBqRe-1" edge="1">
                    <mxGeometry width="50" height="50" relative="1" as="geometry">
                        <mxPoint x="440" y="270" as="sourcePoint"/>
                        <mxPoint x="490" y="220" as="targetPoint"/>
                    </mxGeometry>
                </mxCell>
                <mxCell id="GhQZbDqODk1YI7wpBqRe-6" value="" style="endArrow=classic;html=1;fontSize=16;exitX=0.5;exitY=1;exitDx=0;exitDy=0;entryX=0.5;entryY=0;entryDx=0;entryDy=0;" parent="i7l9lv-lxQWFjhKXFnYf-1" source="GhQZbDqODk1YI7wpBqRe-1" target="GhQZbDqODk1YI7wpBqRe-3" edge="1">
                    <mxGeometry width="50" height="50" relative="1" as="geometry">
                        <mxPoint x="310" y="110" as="sourcePoint"/>
                        <mxPoint x="310" y="170" as="targetPoint"/>
                    </mxGeometry>
                </mxCell>
            </root>
        </mxGraphModel>
    </diagram>
    <diagram id="6nCqwy9Mc1Zwm02oluLx" name="TradeBotConfigurator">
        <mxGraphModel dx="2026" dy="1770" grid="1" gridSize="10" guides="1" tooltips="1" connect="1" arrows="1" fold="1" page="1" pageScale="1" pageWidth="850" pageHeight="1100" math="0" shadow="0">
            <root>
                <mxCell id="AVU2jYsCkxGaMSF-Cfn3-0"/>
                <mxCell id="AVU2jYsCkxGaMSF-Cfn3-1" parent="AVU2jYsCkxGaMSF-Cfn3-0"/>
                <mxCell id="P2eUzmH6s1293cQgJ9-Q-0" style="edgeStyle=none;html=1;" parent="AVU2jYsCkxGaMSF-Cfn3-1" source="AVU2jYsCkxGaMSF-Cfn3-2" target="AVU2jYsCkxGaMSF-Cfn3-10" edge="1">
                    <mxGeometry relative="1" as="geometry"/>
                </mxCell>
                <mxCell id="AVU2jYsCkxGaMSF-Cfn3-2" value="TradeBotConfigurator" style="rounded=0;whiteSpace=wrap;html=1;" parent="AVU2jYsCkxGaMSF-Cfn3-1" vertex="1">
                    <mxGeometry x="340" y="-60" width="120" height="60" as="geometry"/>
                </mxCell>
                <mxCell id="AVU2jYsCkxGaMSF-Cfn3-17" style="edgeStyle=none;html=1;fontSize=14;" parent="AVU2jYsCkxGaMSF-Cfn3-1" source="AVU2jYsCkxGaMSF-Cfn3-3" target="AVU2jYsCkxGaMSF-Cfn3-16" edge="1">
                    <mxGeometry relative="1" as="geometry"/>
                </mxCell>
                <mxCell id="AVU2jYsCkxGaMSF-Cfn3-3" value="TradeBotEditor" style="rounded=0;whiteSpace=wrap;html=1;" parent="AVU2jYsCkxGaMSF-Cfn3-1" vertex="1">
                    <mxGeometry x="130" y="280" width="120" height="60" as="geometry"/>
                </mxCell>
                <mxCell id="AVU2jYsCkxGaMSF-Cfn3-4" value="TradeBotInquirer" style="rounded=0;whiteSpace=wrap;html=1;" parent="AVU2jYsCkxGaMSF-Cfn3-1" vertex="1">
                    <mxGeometry x="525" y="370" width="120" height="60" as="geometry"/>
                </mxCell>
                <mxCell id="AVU2jYsCkxGaMSF-Cfn3-7" value="&lt;h1&gt;&lt;font style=&quot;font-size: 12px&quot;&gt;Gets TradeBot on init and edit indicators (Indicator, Insurance, Safety) by backtesting&lt;/font&gt;&lt;/h1&gt;" style="text;html=1;strokeColor=none;fillColor=none;spacing=5;spacingTop=-20;whiteSpace=wrap;overflow=hidden;rounded=0;" parent="AVU2jYsCkxGaMSF-Cfn3-1" vertex="1">
                    <mxGeometry y="180" width="190" height="120" as="geometry"/>
                </mxCell>
                <mxCell id="AVU2jYsCkxGaMSF-Cfn3-8" value="&lt;h1&gt;&lt;font style=&quot;font-size: 12px&quot;&gt;Sends inquires to user for selecting options&lt;/font&gt;&lt;/h1&gt;" style="text;html=1;strokeColor=none;fillColor=none;spacing=5;spacingTop=-20;whiteSpace=wrap;overflow=hidden;rounded=0;" parent="AVU2jYsCkxGaMSF-Cfn3-1" vertex="1">
                    <mxGeometry x="660" y="360" width="190" height="80" as="geometry"/>
                </mxCell>
                <mxCell id="P2eUzmH6s1293cQgJ9-Q-1" style="edgeStyle=none;html=1;entryX=0.5;entryY=0;entryDx=0;entryDy=0;" parent="AVU2jYsCkxGaMSF-Cfn3-1" source="AVU2jYsCkxGaMSF-Cfn3-10" target="AVU2jYsCkxGaMSF-Cfn3-3" edge="1">
                    <mxGeometry relative="1" as="geometry"/>
                </mxCell>
                <mxCell id="P2eUzmH6s1293cQgJ9-Q-2" style="edgeStyle=none;html=1;entryX=0.5;entryY=0;entryDx=0;entryDy=0;" parent="AVU2jYsCkxGaMSF-Cfn3-1" source="AVU2jYsCkxGaMSF-Cfn3-10" target="AVU2jYsCkxGaMSF-Cfn3-4" edge="1">
                    <mxGeometry relative="1" as="geometry"/>
                </mxCell>
                <mxCell id="AVU2jYsCkxGaMSF-Cfn3-10" value="select_tradebot" style="shape=process;whiteSpace=wrap;html=1;backgroundOutline=1;" parent="AVU2jYsCkxGaMSF-Cfn3-1" vertex="1">
                    <mxGeometry x="340" y="70" width="120" height="60" as="geometry"/>
                </mxCell>
                <mxCell id="AVU2jYsCkxGaMSF-Cfn3-15" value="&lt;h1&gt;&lt;font style=&quot;font-size: 12px&quot;&gt;Gets tradebots list from haas API by using TradeBotInquirer&lt;/font&gt;&lt;/h1&gt;" style="text;html=1;strokeColor=none;fillColor=none;spacing=5;spacingTop=-20;whiteSpace=wrap;overflow=hidden;rounded=0;" parent="AVU2jYsCkxGaMSF-Cfn3-1" vertex="1">
                    <mxGeometry x="480" y="70" width="220" height="60" as="geometry"/>
                </mxCell>
                <mxCell id="P2eUzmH6s1293cQgJ9-Q-3" style="edgeStyle=none;html=1;entryX=0;entryY=0.5;entryDx=0;entryDy=0;" parent="AVU2jYsCkxGaMSF-Cfn3-1" source="AVU2jYsCkxGaMSF-Cfn3-16" target="AVU2jYsCkxGaMSF-Cfn3-4" edge="1">
                    <mxGeometry relative="1" as="geometry"/>
                </mxCell>
                <mxCell id="AVU2jYsCkxGaMSF-Cfn3-16" value="edit_parameters" style="shape=process;whiteSpace=wrap;html=1;backgroundOutline=1;" parent="AVU2jYsCkxGaMSF-Cfn3-1" vertex="1">
                    <mxGeometry x="130" y="370" width="120" height="60" as="geometry"/>
                </mxCell>
                <mxCell id="AVU2jYsCkxGaMSF-Cfn3-18" value="&lt;h1&gt;&lt;font style=&quot;font-size: 12px&quot;&gt;gets avaliable indicators of current TradeBot and then provides backtesting interface&lt;/font&gt;&lt;/h1&gt;" style="text;html=1;strokeColor=none;fillColor=none;spacing=5;spacingTop=-20;whiteSpace=wrap;overflow=hidden;rounded=0;" parent="AVU2jYsCkxGaMSF-Cfn3-1" vertex="1">
                    <mxGeometry x="-80" y="390" width="190" height="120" as="geometry"/>
                </mxCell>
            </root>
        </mxGraphModel>
    </diagram>
</mxfile>